<mxfile host="app.diagrams.net" agent="Mozilla/5.0 (Windows NT 10.0; Win64; x64) AppleWebKit/537.36 (KHTML, like Gecko) Chrome/137.0.0.0 Safari/537.36" version="27.1.6">
  <diagram name="Trang-1" id="gw1u0N_37EYKbAOxaqmh">
    <mxGraphModel dx="1426" dy="777" grid="1" gridSize="10" guides="1" tooltips="1" connect="1" arrows="1" fold="1" page="1" pageScale="1" pageWidth="827" pageHeight="1169" math="0" shadow="0">
      <root>
        <mxCell id="0" />
        <mxCell id="1" parent="0" />
        <mxCell id="aEer66lgYHJFHRynMX58-4" style="edgeStyle=orthogonalEdgeStyle;rounded=0;orthogonalLoop=1;jettySize=auto;html=1;exitX=0;exitY=0.5;exitDx=0;exitDy=0;entryX=0.5;entryY=0;entryDx=0;entryDy=0;" edge="1" parent="1" source="aEer66lgYHJFHRynMX58-1" target="aEer66lgYHJFHRynMX58-3">
          <mxGeometry relative="1" as="geometry" />
        </mxCell>
        <mxCell id="aEer66lgYHJFHRynMX58-6" value="" style="edgeStyle=orthogonalEdgeStyle;rounded=0;orthogonalLoop=1;jettySize=auto;html=1;" edge="1" parent="1" source="aEer66lgYHJFHRynMX58-1" target="aEer66lgYHJFHRynMX58-5">
          <mxGeometry relative="1" as="geometry" />
        </mxCell>
        <mxCell id="aEer66lgYHJFHRynMX58-8" style="edgeStyle=orthogonalEdgeStyle;rounded=0;orthogonalLoop=1;jettySize=auto;html=1;entryX=0.5;entryY=0;entryDx=0;entryDy=0;" edge="1" parent="1" source="aEer66lgYHJFHRynMX58-1" target="aEer66lgYHJFHRynMX58-7">
          <mxGeometry relative="1" as="geometry" />
        </mxCell>
        <mxCell id="aEer66lgYHJFHRynMX58-1" value="FMCarer&amp;nbsp;" style="rounded=0;whiteSpace=wrap;html=1;" vertex="1" parent="1">
          <mxGeometry x="330" y="60" width="120" height="60" as="geometry" />
        </mxCell>
        <mxCell id="aEer66lgYHJFHRynMX58-3" value="Use&lt;div&gt;&amp;nbsp;Chính&lt;/div&gt;" style="shape=actor;whiteSpace=wrap;html=1;" vertex="1" parent="1">
          <mxGeometry x="120" y="140" width="60" height="70" as="geometry" />
        </mxCell>
        <mxCell id="aEer66lgYHJFHRynMX58-5" value="User phụ" style="shape=actor;whiteSpace=wrap;html=1;" vertex="1" parent="1">
          <mxGeometry x="360" y="150" width="60" height="70" as="geometry" />
        </mxCell>
        <mxCell id="aEer66lgYHJFHRynMX58-7" value="ADmin" style="shape=actor;whiteSpace=wrap;html=1;" vertex="1" parent="1">
          <mxGeometry x="600" y="140" width="60" height="70" as="geometry" />
        </mxCell>
        <mxCell id="aEer66lgYHJFHRynMX58-9" value="Đăng kí&amp;nbsp;" style="ellipse;whiteSpace=wrap;html=1;" vertex="1" parent="1">
          <mxGeometry x="200" y="230" width="120" height="80" as="geometry" />
        </mxCell>
        <mxCell id="aEer66lgYHJFHRynMX58-10" value="Đăng Nhập" style="ellipse;whiteSpace=wrap;html=1;" vertex="1" parent="1">
          <mxGeometry x="200" y="330" width="120" height="80" as="geometry" />
        </mxCell>
        <mxCell id="aEer66lgYHJFHRynMX58-11" value="Thêm sửa xóa thông tin trẻ&amp;nbsp;" style="ellipse;whiteSpace=wrap;html=1;" vertex="1" parent="1">
          <mxGeometry x="200" y="430" width="120" height="80" as="geometry" />
        </mxCell>
        <mxCell id="aEer66lgYHJFHRynMX58-12" value="Tạo lịch chăn sóc trẻ&amp;nbsp;&lt;div&gt;&lt;br&gt;&lt;/div&gt;" style="ellipse;whiteSpace=wrap;html=1;" vertex="1" parent="1">
          <mxGeometry x="200" y="530" width="120" height="80" as="geometry" />
        </mxCell>
        <mxCell id="aEer66lgYHJFHRynMX58-13" value="xem nhật kí chăm sóc&amp;nbsp;" style="ellipse;whiteSpace=wrap;html=1;" vertex="1" parent="1">
          <mxGeometry x="200" y="640" width="120" height="80" as="geometry" />
        </mxCell>
        <mxCell id="aEer66lgYHJFHRynMX58-14" value="quản lí trẻ" style="ellipse;whiteSpace=wrap;html=1;" vertex="1" parent="1">
          <mxGeometry x="470" y="660" width="120" height="80" as="geometry" />
        </mxCell>
        <mxCell id="aEer66lgYHJFHRynMX58-15" value="quản lí tài khoản&amp;nbsp;" style="ellipse;whiteSpace=wrap;html=1;" vertex="1" parent="1">
          <mxGeometry x="470" y="560" width="120" height="80" as="geometry" />
        </mxCell>
        <mxCell id="aEer66lgYHJFHRynMX58-16" value="quản lí doanh thu&amp;nbsp;" style="ellipse;whiteSpace=wrap;html=1;" vertex="1" parent="1">
          <mxGeometry x="470" y="470" width="120" height="80" as="geometry" />
        </mxCell>
        <mxCell id="aEer66lgYHJFHRynMX58-17" value="gửi thông báo hệ thống&amp;nbsp;" style="ellipse;whiteSpace=wrap;html=1;" vertex="1" parent="1">
          <mxGeometry x="200" y="750" width="120" height="80" as="geometry" />
        </mxCell>
        <mxCell id="aEer66lgYHJFHRynMX58-18" value="nhận thông báo hệ thống" style="ellipse;whiteSpace=wrap;html=1;" vertex="1" parent="1">
          <mxGeometry x="470" y="240" width="120" height="80" as="geometry" />
        </mxCell>
        <mxCell id="aEer66lgYHJFHRynMX58-19" value="quản lí tài khoản&amp;nbsp;" style="ellipse;whiteSpace=wrap;html=1;" vertex="1" parent="1">
          <mxGeometry x="470" y="750" width="120" height="80" as="geometry" />
        </mxCell>
        <mxCell id="aEer66lgYHJFHRynMX58-20" value="hỗ trợ xử lí khiếu nại&amp;nbsp;" style="ellipse;whiteSpace=wrap;html=1;" vertex="1" parent="1">
          <mxGeometry x="470" y="350" width="120" height="80" as="geometry" />
        </mxCell>
        <mxCell id="aEer66lgYHJFHRynMX58-21" value="duyệt bài cộng đồng&amp;nbsp;" style="ellipse;whiteSpace=wrap;html=1;" vertex="1" parent="1">
          <mxGeometry x="470" y="850" width="120" height="80" as="geometry" />
        </mxCell>
      </root>
    </mxGraphModel>
  </diagram>
</mxfile>
